<svg width="150" height="150" viewBox="0 0 150 150" fill="none" xmlns="http://www.w3.org/2000/svg">
    <rect width="150" height="150" rx="75" fill="#3E63DD" />
    <path
        d="M64.202 123H26.4179L42.4762 26.2727H78.7489C88.6987 26.2727 97.0112 28.2721 103.686 32.2709C110.362 36.2698 115.1 41.9846 117.903 49.4155C120.705 56.8464 121.256 65.6941 119.556 75.9588C117.918 85.8456 114.597 94.2998 109.59 101.321C104.615 108.343 98.2549 113.711 90.5092 117.427C82.7949 121.142 74.0259 123 64.202 123ZM56.3618 100.707H65.9023C70.6883 100.707 74.9547 99.873 78.7017 98.2042C82.4801 96.5039 85.6287 93.6701 88.1477 89.7028C90.6981 85.704 92.5401 80.241 93.6736 73.3139C94.7442 66.7647 94.7127 61.7111 93.5791 58.1531C92.4456 54.5636 90.2888 52.0761 87.1086 50.6907C83.9285 49.2738 79.8194 48.5653 74.7816 48.5653H65.0522L56.3618 100.707Z"
        fill="white" />
</svg>