<svg width="24" height="24" viewBox="0 0 24 24" fill="none" xmlns="http://www.w3.org/2000/svg" class="icon" aria-hidden="true"><g clip-path="url(#a)"><path d="M12.233 13.357c3.082 0 5.581-2.43 5.581-5.428 0-2.999-2.499-5.429-5.581-5.429S6.65 4.93 6.65 7.929s2.5 5.428 5.582 5.428" fill="#036C70"/><path d="M16.883 17.882c2.826 0 5.117-2.228 5.117-4.977S19.709 7.93 16.883 7.93s-5.116 2.228-5.116 4.976c0 2.749 2.29 4.977 5.116 4.977" fill="#1A9BA1"/><path d="M12.93 21.5c2.184 0 3.954-1.722 3.954-3.846s-1.77-3.845-3.954-3.845c-2.183 0-3.953 1.722-3.953 3.845s1.77 3.846 3.953 3.846" fill="#37C6D0"/><path opacity=".1" d="M13.163 7.399v9.654a.83.83 0 0 1-.53.764.8.8 0 0 1-.321.063h-3.33q-.006-.112-.005-.226a2 2 0 0 1 .01-.226c.084-1.446 1-2.722 2.367-3.298v-.841c-3.041-.469-5.116-3.247-4.634-6.204l.01-.062q.035-.228.098-.452h5.484c.469.002.85.371.85.828" fill="currentColor"/><path opacity=".2" d="M11.847 7.024H6.73c-.516 2.952 1.525 5.753 4.56 6.256q.139.022.278.039c-1.442.664-2.493 2.553-2.582 4.11q-.012.112-.01.226-.001.112.005.226.013.228.06.452h2.805a.86.86 0 0 0 .786-.515.8.8 0 0 0 .065-.313V7.852a.843.843 0 0 0-.85-.828" fill="currentColor"/><path opacity=".2" d="M11.847 7.024H6.73c-.516 2.952 1.526 5.753 4.561 6.256l.187.028c-1.395.713-2.404 2.597-2.492 4.12h2.86a.846.846 0 0 0 .852-.827V7.85a.843.843 0 0 0-.851-.827" fill="currentColor"/><path opacity=".2" d="M11.381 7.024h-4.65c-.489 2.787 1.307 5.471 4.125 6.167a7.37 7.37 0 0 0-1.87 4.237h2.395a.843.843 0 0 0 .851-.827V7.85a.84.84 0 0 0-.85-.827" fill="currentColor"/><path d="M2.853 7.024h8.527c.47 0 .853.37.853.829v8.294a.84.84 0 0 1-.853.829H2.853a.84.84 0 0 1-.853-.83V7.854c0-.458.382-.83.853-.83" fill="url(#b)"/><path d="M5.808 11.899a1.55 1.55 0 0 1-.488-.502 1.34 1.34 0 0 1-.17-.686c-.01-.324.102-.64.316-.89a1.87 1.87 0 0 1 .84-.532 3.6 3.6 0 0 1 1.147-.173 4.5 4.5 0 0 1 1.512.206v1.04a2.4 2.4 0 0 0-.684-.271 3.4 3.4 0 0 0-.8-.093 1.8 1.8 0 0 0-.821.169.52.52 0 0 0-.326.48c0 .127.05.249.14.34.106.108.233.196.372.26a12 12 0 0 0 .797.338q.459.174.88.422c.212.127.39.302.52.509.133.235.197.501.186.77.015.332-.09.659-.296.925a1.65 1.65 0 0 1-.79.517 3.7 3.7 0 0 1-1.128.16 6 6 0 0 1-1.023-.082 3.6 3.6 0 0 1-.83-.237v-1.097c.254.176.538.308.838.389q.451.136.924.144c.29.018.58-.042.837-.173a.544.544 0 0 0 .127-.862 1.6 1.6 0 0 0-.436-.295q-.28-.136-.821-.358a4.7 4.7 0 0 1-.823-.418" fill="#fff"/></g><defs><linearGradient id="b" x1="3.778" y1="6.376" x2="10.181" y2="17.778" gradientUnits="userSpaceOnUse"><stop stop-color="#058F92"/><stop offset=".5" stop-color="#038489"/><stop offset="1" stop-color="#026D71"/></linearGradient><clipPath id="a"><path fill="#fff" d="M2 2.5h20v19H2z"/></clipPath></defs></svg>